<svg id="Layer_1" data-name="Layer 1" xmlns="http://www.w3.org/2000/svg" xmlns:xlink="http://www.w3.org/1999/xlink" viewBox="0 0 35 41"><defs><style>.cls-1,.cls-4{fill:none;}.cls-2{clip-path:url(#clip-path);}.cls-3{fill:#f7f7f5;}.cls-4{stroke:#f7f7f5;stroke-miterlimit:10;stroke-width:3px;}</style><clipPath id="clip-path"><rect class="cls-1" width="35" height="41"/></clipPath></defs><title>Homelogo</title><g class="cls-2"><path class="cls-3" d="M31.76,23c4.54-8.24-.08-18.58-10.36-21.08C15.92.54,8.51,2.86,5,7c-6.46,7.61-3.59,18.3,5.23,22.46A16.88,16.88,0,0,0,15,30.87a.36.36,0,0,1,.29.22l2.27,5.82,2.34-5.86a.36.36,0,0,1,.28-.22A15.93,15.93,0,0,0,31.76,23"/><path class="cls-4" d="M31.76,23c4.54-8.24-.08-18.58-10.36-21.08C15.92.54,8.51,2.86,5,7c-6.46,7.61-3.59,18.3,5.23,22.46A16.88,16.88,0,0,0,15,30.87a.36.36,0,0,1,.29.22l2.27,5.82,2.34-5.86a.36.36,0,0,1,.28-.22A15.93,15.93,0,0,0,31.76,23Z"/></g></svg>