<svg id="Layer_1" data-name="Layer 1" xmlns="http://www.w3.org/2000/svg" viewBox="0 0 255 380"><defs><style>.cls-1{fill:none;stroke:#ebebeb;stroke-miterlimit:10;stroke-width:5px;}.cls-2{fill:#ffdf36;}</style></defs><title>SpeechBubbleanddots</title><path class="cls-1" d="M238.67,183.9c35.38-69.5-.6-156.58-80.79-177.72-42.67-11.25-100.51,8.3-127.77,43-50.4,64.16-28,154.26,40.79,189.29a124.64,124.64,0,0,0,37.23,12.1,2.88,2.88,0,0,1,2.27,1.86l17.68,49.06,18.24-49.4a2.88,2.88,0,0,1,2.22-1.83A124.55,124.55,0,0,0,238.67,183.9Z"/><circle class="cls-2" cx="127.5" cy="351" r="4"/><circle class="cls-2" cx="127.5" cy="374.75" r="4"/><circle class="cls-2" cx="127.5" cy="327.2" r="4"/></svg>